<?xml version="1.0" encoding="UTF-8"?>
<!DOCTYPE svg PUBLIC "-//W3C//DTD SVG 1.1//EN" "http://www.w3.org/Graphics/SVG/1.1/DTD/svg11.dtd">
<!-- Creator: CorelDRAW X8 -->
<svg xmlns="http://www.w3.org/2000/svg" xml:space="preserve" width="237.359mm" height="29.8125mm" version="1.1" style="shape-rendering:geometricPrecision; text-rendering:geometricPrecision; image-rendering:optimizeQuality; fill-rule:evenodd; clip-rule:evenodd"
viewBox="0 0 11456 1439"
 xmlns:xlink="http://www.w3.org/1999/xlink">
 <defs>
  <style type="text/css">
   <![CDATA[
    .fil0 {fill:white}
   ]]>
  </style>
 </defs>
 <g id="Camada_x0020_1">
  <metadata id="CorelCorpID_0Corel-Layer"/>
  <g id="_1437177439104">
   <rect class="fil0" transform="matrix(-2.48223 -0 -0.186754 0.775811 11193.5 190.675)" width="1218" height="164"/>
   <rect class="fil0" transform="matrix(-2.48223 -0 -0.186754 0.775811 9776.48 381.35)" width="1218" height="164"/>
   <rect class="fil0" transform="matrix(-4.18864 -0 -0.186754 0.775811 10419.2 0)" width="1218" height="164"/>
   <path class="fil0" d="M1151 921l422 0 28 -108 -623 1 53 -190 814 0 -1 1c99,3 158,85 131,186l-118 441c-27,103 -133,187 -236,187 -206,0 -412,0 -618,0l-13 0c-97,-5 -154,-86 -128,-185l40 -149c27,-103 140,-192 249,-184zm3526 -297l470 0c97,0 156,80 130,177l-124 460c-27,98 -128,178 -226,178l-469 0 -194 0 -179 0 287 -1068 373 0 -68 253zm1 189l177 0c25,0 39,20 32,45l-97 348c-7,25 -32,45 -57,45 -74,0 -147,0 -221,0l109 -393c7,-25 32,-45 57,-45zm-2360 -189l732 0 -50 189 -487 0c-25,0 -51,20 -57,45l-158 581 -375 0 170 -638c26,-97 128,-177 225,-177zm1034 0l664 0c97,0 156,80 129,177l-124 460c-26,98 -127,178 -225,178l-664 0c-97,0 -156,-80 -129,-178l124 -460c26,-97 127,-177 225,-177zm195 189l177 0c24,0 39,20 32,45l-97 348c-7,25 -33,45 -57,45l-177 0c-25,0 -40,-20 -33,-45l97 -348c7,-25 33,-45 58,-45zm2163 -441l419 -1 -51 189 -419 1 51 -189zm-5658 252l178 0c23,-84 45,-168 67,-253l373 0 -68 253 318 0 -52 189 -317 0 -105 393c-7,25 9,45 34,45l272 0 -50 188 -514 0c-98,0 -156,-80 -130,-178 40,-150 81,-299 121,-448l-179 0 52 -189zm5508 297l422 0 29 -108 -624 1 53 -190 814 0 0 1c98,3 157,85 130,186l-117 441c-28,103 -134,187 -236,187 -207,0 -413,0 -619,0l-13 0c-97,-5 -154,-86 -128,-185l40 -149c28,-103 140,-192 249,-184zm156 189l7 0 172 0 36 0 -14 50 -14 57c-5,19 -24,35 -43,35l-180 0c-19,0 -30,-16 -26,-35l19 -72c4,-19 24,-35 43,-35zm-4409 0l7 0 172 0 36 0 -14 50 -14 57c-5,19 -24,35 -43,35l-180 0c-19,0 -30,-16 -26,-35l19 -72c4,-19 24,-35 43,-35z"/>
   <path class="fil0" d="M8346 1142c-145,0 -290,0 -435,0l-28 107 623 0 -52 189 -814 1 -7 0c-98,-4 -150,-87 -124,-187l118 -442c27,-103 134,-189 236,-189 211,0 421,0 632,0 97,0 154,89 127,188l-39 148c-27,102 -134,185 -237,185zm838 6l-104 -527 -375 0 159 818 378 0 23 0 242 -506 99 506 377 0 24 0 391 -818 -220 0 -252 527 -104 -527 -386 0 -252 527zm2187 -56l-44 169c-25,98 -127,178 -225,178l-664 0c-97,0 -156,-80 -129,-178l15 -56 375 0 -1 1c-7,25 8,45 33,45l177 0c24,0 50,-20 57,-45l17 -60c2,-20 -12,-36 -34,-36 -139,0 -282,0 -423,0 -97,0 -156,-79 -129,-177 12,-44 23,-87 35,-131 27,-98 128,-177 226,-177l663 0c98,0 156,79 130,177l-15 57 -375 0 0 -2c7,-25 -7,-45 -32,-45l-177 0c-25,0 -50,20 -57,45l-18 64 464 0c92,0 149,71 133,162l-2 9zm-3980 -468c98,0 156,80 130,177 -57,213 -117,425 -175,638 -125,0 -250,0 -375,0l161 -581c7,-25 -8,-45 -32,-45l-223 0 -169 626 -3 0 -370 0c73,-272 146,-542 219,-815 279,0 558,0 837,0zm571 329l249 -1 38 -141 -249 0 -38 142z"/>
  </g>
 </g>
</svg>
