<?xml version="1.0" encoding="UTF-8"?>
<!DOCTYPE svg PUBLIC "-//W3C//DTD SVG 1.1//EN" "http://www.w3.org/Graphics/SVG/1.1/DTD/svg11.dtd">
<!-- Creator: CorelDRAW X8 -->
<svg xmlns="http://www.w3.org/2000/svg" xml:space="preserve" width="237.359mm" height="29.8125mm" version="1.1" style="shape-rendering:geometricPrecision; text-rendering:geometricPrecision; image-rendering:optimizeQuality; fill-rule:evenodd; clip-rule:evenodd"
viewBox="0 0 10536 1323"
 xmlns:xlink="http://www.w3.org/1999/xlink">
 <defs>
  <style type="text/css">
   <![CDATA[
    .fil3 {fill:#A8AAAC}
    .fil0 {fill:#CD3539}
    .fil1 {fill:#8FBF57}
    .fil2 {fill:#288BCD}
   ]]>
  </style>
 </defs>
 <g id="Camada_x0020_1">
  <metadata id="CorelCorpID_0Corel-Layer"/>
  <g id="_1437177435360">
   <rect class="fil0" transform="matrix(-2.48223 -0 -0.186754 0.775811 10294 175.352)" width="1120" height="151"/>
   <rect class="fil1" transform="matrix(-2.48223 -0 -0.186754 0.775811 8990.92 350.707)" width="1120" height="151"/>
   <rect class="fil2" transform="matrix(-4.18864 -0 -0.186754 0.775811 9582.04 -0.00148326)" width="1120" height="151"/>
   <path class="fil3" d="M1058 847l389 0 26 -99 -573 0 48 -174 748 0 0 0c91,3 145,79 120,172l-108 406c-25,94 -123,171 -217,171 -190,0 -379,0 -569,0l-12 0c-89,-4 -142,-79 -117,-170l36 -136c26,-96 129,-177 229,-170zm3243 -273l432 0c90,0 144,73 120,163l-114 423c-25,90 -118,163 -208,163l-431 0 -179 0 -164 0 264 -982 343 0 -63 233zm1 174l163 0c23,0 36,18 30,41l-90 320c-6,23 -30,42 -52,42 -68,0 -136,0 -204,0l100 -362c7,-23 30,-41 53,-41zm-2170 -174l673 0 -46 174 -448 0c-23,0 -46,18 -53,41l-144 534 -345 0 156 -586c24,-90 117,-163 207,-163zm950 0l611 0c90,0 143,73 119,163l-114 423c-24,90 -117,163 -207,163l-610 0c-90,0 -144,-73 -120,-163l114 -423c25,-90 118,-163 207,-163zm180 174l163 0c22,0 36,18 29,41l-89 320c-6,23 -30,42 -53,42l-163 0c-22,0 -36,-19 -29,-42l89 -320c6,-23 30,-41 53,-41zm1989 -406l385 -1 -46 174 -385 1 46 -174zm-5203 232l163 0c21,-78 42,-155 63,-233l342 0 -62 233 292 0 -48 174 -291 0 -97 361c-6,23 9,42 31,42l250 0 -46 172 -472 0c-90,0 -144,-73 -120,-163 38,-138 75,-275 112,-412l-165 0 48 -174zm5065 273l388 0 27 -99 -573 0 48 -174 748 0 0 0c91,3 145,79 120,172l-108 406c-25,94 -123,171 -217,171 -190,0 -379,0 -569,0l-12 0c-89,-4 -142,-79 -117,-170l36 -136c26,-96 129,-177 229,-170zm144 174l6 0 159 0 33 0 -13 46 -13 52c-5,18 -23,32 -40,32l-165 0c-18,0 -28,-14 -24,-32l17 -66c4,-18 22,-32 40,-32zm-4055 0l7 0 158 0 33 0 -13 46 -13 52c-4,18 -22,32 -40,32l-165 0c-17,0 -28,-14 -24,-32l17 -66c4,-18 22,-32 40,-32z"/>
   <path class="fil2" d="M7676 1050c-134,0 -267,0 -400,0l-26 99 573 -1 -48 174 -749 1 -6 0c-91,-3 -139,-80 -114,-172l108 -406c25,-94 123,-174 217,-174 194,0 388,0 581,0 89,0 142,82 118,173l-37 136c-25,94 -123,170 -217,170zm770 6l-95 -485 -346 0 147 752 347 0 22 0 222 -465 91 465 347 0 22 0 359 -752 -202 0 -232 485 -95 -485 -355 0 -232 485zm2011 -52l-40 156c-23,90 -117,163 -207,163l-611 0c-89,0 -143,-73 -119,-163l14 -52 345 0 0 1c-7,23 7,42 29,42l163 0c23,0 47,-19 53,-42l15 -55c2,-19 -11,-33 -31,-33 -127,0 -259,0 -388,0 -90,0 -144,-73 -120,-163 11,-40 22,-80 33,-120 24,-90 117,-164 207,-164l611 0c89,0 143,74 119,164l-14 52 -345 0 1 -2c6,-23 -7,-41 -30,-41l-163 0c-23,0 -46,18 -53,41l-16 59 426 0c85,0 138,66 123,149l-2 8zm-3660 -430c90,0 144,73 120,163 -53,196 -108,391 -161,586 -115,0 -230,0 -345,0l148 -534c6,-23 -7,-41 -30,-41l-205 0 -155 575 -3 0 -340 0c67,-250 135,-498 201,-749 257,0 514,0 770,0zm525 302l229 0 35 -131 -229 1 -35 130z"/>
  </g>
 </g>
</svg>
